<?xml version="1.0" encoding="utf-8"?>
<!-- Generator: Adobe Illustrator 16.0.0, SVG Export Plug-In . SVG Version: 6.00 Build 0)  -->
<!DOCTYPE svg PUBLIC "-//W3C//DTD SVG 1.1//EN" "http://www.w3.org/Graphics/SVG/1.1/DTD/svg11.dtd">
<svg version="1.1" id="Layer_1" xmlns="http://www.w3.org/2000/svg" xmlns:xlink="http://www.w3.org/1999/xlink" x="0px" y="0px"
	 width="485.257px" height="68.033px" viewBox="0 0 485.257 68.033" enable-background="new 0 0 485.257 68.033"
	 xml:space="preserve">
<g>
	<g>
		<g>
			<path d="M34.401,11.504v22.231c0,2.001-0.043,3.218-0.132,3.642c-0.092,0.436-0.337,0.646-0.748,0.631
				c-0.257-0.012-0.461-0.096-0.615-0.242l-0.577-0.687L9.97,11.504l-0.267-0.283c-0.105-0.105-0.228-0.16-0.375-0.16
				c-0.336,0-0.496,0.395-0.496,1.195v17.995l-0.031,1.117l0.08,1.886c0.13,1.171,0.428,1.973,0.901,2.42
				c0.481,0.441,1.421,0.769,2.812,0.977c0.578,0.072,0.876,0.297,0.876,0.679c0,0.345-0.189,0.517-0.557,0.517
				c-0.248,0-0.505-0.018-0.794-0.053c-0.198-0.039-0.957-0.086-2.308-0.16l-2.705-0.13l-1.271,0.053
				c-0.695,0-1.349,0.028-1.968,0.112c-0.461,0.075-0.781,0.098-0.986,0.098c-0.448,0-0.697-0.16-0.735-0.488
				c-0.015-0.263,0.229-0.473,0.735-0.652c1.49-0.51,2.498-1.192,3.016-2.059c0.52-0.846,0.782-2.238,0.782-4.146V12.365
				c0-3.061-0.485-5.47-1.463-7.234c-0.965-1.754-2.37-2.76-4.211-3.012C0.527,2.051,0.291,1.855,0.291,1.527
				c0-0.329,0.192-0.494,0.58-0.494c0.091,0,0.227,0.01,0.427,0.028l1.078,0.029l1.79,0.052L4.59,1.116
				c0.418-0.016,0.751-0.025,0.976-0.025c0.442,0,0.89,0.253,1.327,0.765L31.29,29.498c0.391,0.438,0.643,0.649,0.747,0.629
				c0.174-0.017,0.27-0.187,0.292-0.503V16.49l0.025-3.573l-0.317-6.103c-0.18-1.506-0.611-2.568-1.316-3.195
				c-0.694-0.629-1.948-1.09-3.772-1.396c-0.512-0.083-0.767-0.297-0.767-0.643c0-0.33,0.255-0.489,0.767-0.489
				c0.219,0,0.594,0.018,1.113,0.07c1.22,0.13,2.86,0.192,4.899,0.192c1.094,0,1.977-0.056,2.633-0.158
				c0.563-0.104,0.998-0.162,1.296-0.162c0.463,0,0.701,0.186,0.744,0.559c0.01,0.229-0.161,0.395-0.526,0.507
				c-1.08,0.258-1.801,0.707-2.136,1.322c-0.348,0.614-0.521,1.778-0.521,3.475v2.862L34.401,11.504z"/>
		</g>
		<g>
			<path d="M101.183,17.148l5.324,12.588c0.582,1.395,0.999,2.085,1.265,2.085c0.228,0,0.521-0.399,0.867-1.216
				c0.107-0.273,0.339-0.751,0.665-1.467c2.331-5.162,4.494-10.365,6.492-15.623c1.998-5.261,3.001-8.354,3.001-9.297
				c0-0.834-0.754-1.404-2.254-1.732c-0.826-0.185-1.246-0.475-1.246-0.854c0-0.364,0.251-0.541,0.774-0.541
				c0.084,0,0.249,0.01,0.476,0.025c0.733,0.048,1.801,0.079,3.182,0.079c1.622,0,2.826-0.047,3.62-0.148
				c0.607-0.074,1.021-0.121,1.259-0.121c0.384,0,0.578,0.199,0.578,0.574c0,0.311-0.252,0.564-0.766,0.776
				c-0.722,0.284-1.267,0.815-1.623,1.595l-1.455,3.164c-0.601,1.303-1.537,3.448-2.808,6.419c-1.315,3.136-2.311,5.479-3.01,7.027
				l-3.172,7.204l-2.125,5.016l-1.264,2.892l-0.585,1.353l-0.402,0.798c-0.46,0.972-0.916,1.46-1.368,1.46
				c-0.386,0-0.761-0.432-1.128-1.279l-6.588-15.361l-6.65,15.821c-0.312,0.762-0.634,1.129-0.96,1.107
				c-0.462-0.019-0.971-0.709-1.522-2.079L78.797,11.205l-0.689-1.766c-0.955-2.404-1.786-4.073-2.504-5.012
				c-0.718-0.942-1.628-1.533-2.718-1.773l-1.088-0.24c-0.372-0.089-0.561-0.308-0.561-0.658c0-0.412,0.267-0.613,0.801-0.613
				c0.162,0,0.373,0.019,0.671,0.053c0.685,0.086,1.572,0.126,2.649,0.126l3.267,0.032l2.237-0.056
				c0.904-0.079,1.453-0.103,1.65-0.103c0.482,0,0.721,0.213,0.721,0.648c0,0.328-0.195,0.552-0.593,0.671
				c-1.113,0.325-1.665,0.837-1.665,1.543c0,0.866,0.636,2.786,1.927,5.743c0.598,1.351,1.556,3.645,2.857,6.885
				c1.271,3.148,2.161,5.326,2.69,6.528l2.59,5.745c0.281,0.637,0.469,1.062,0.582,1.277l0.324,0.559
				c0.19,0.385,0.34,0.581,0.443,0.581c0.115,0,0.305-0.284,0.56-0.849l0.133-0.317l4.545-10.672
				c-0.367-0.888-0.585-1.423-0.661-1.601l-2.357-5.533L92.398,7.26c-0.824-1.883-1.462-3.086-1.905-3.6
				c-0.445-0.51-1.128-0.832-2.092-0.957c-1.452-0.188-2.153-0.511-2.118-0.966c0.014-0.347,0.384-0.519,1.107-0.519l1.031,0.023
				l5.169,0.166c0.743,0,1.625-0.055,2.628-0.166c0.584-0.047,0.963-0.078,1.138-0.078c0.627,0,0.939,0.203,0.939,0.621
				c0,0.279-0.293,0.54-0.881,0.762c-0.843,0.348-1.268,0.918-1.268,1.699c0,0.678,0.312,1.768,0.952,3.271l2.8,6.654
				c0.239-0.557,0.418-0.957,0.536-1.219c2.037-4.547,3.059-7.497,3.059-8.863c0-0.814-0.583-1.33-1.757-1.543
				c-0.838-0.156-1.265-0.442-1.265-0.855c0-0.348,0.302-0.527,0.923-0.527c0.104,0,0.448,0.017,1.025,0.042
				c0.777,0.044,1.69,0.067,2.724,0.067c1.133,0,1.996-0.038,2.599-0.109c0.509-0.048,0.867-0.073,1.079-0.073
				c0.533,0,0.794,0.206,0.794,0.624c0,0.292-0.302,0.531-0.922,0.699c-0.681,0.207-1.162,0.529-1.474,0.953
				c-0.314,0.427-0.876,1.592-1.685,3.507L101.183,17.148z"/>
		</g>
		<g>
			<path d="M165.85,4.113h-7.455c-0.773,0-1.271,0.104-1.473,0.314c-0.198,0.215-0.297,0.738-0.297,1.566v26.035l0.025,1.042
				c0.085,2.065,1.248,3.299,3.471,3.688c0.615,0.11,0.928,0.31,0.928,0.599c0,0.386-0.256,0.566-0.74,0.566
				c-0.22,0-0.659-0.051-1.302-0.158c-0.339-0.055-1.147-0.08-2.404-0.08l-1.942-0.023l-2.066,0.023
				c-0.743,0-1.369,0.025-1.884,0.08c-1.008,0.107-1.605,0.158-1.783,0.158c-0.533,0-0.793-0.181-0.793-0.566
				c0-0.269,0.286-0.448,0.87-0.516c1.369-0.176,2.284-0.553,2.759-1.13c0.466-0.583,0.71-1.606,0.71-3.092V6.291l-0.022-0.69
				c0-0.642-0.092-1.047-0.277-1.228c-0.188-0.176-0.611-0.26-1.284-0.26h-7.031c-1.431,0-2.469,0.279-3.115,0.857
				c-0.644,0.576-1.151,1.66-1.502,3.252c-0.157,0.683-0.396,1.021-0.721,1.006c-0.311-0.013-0.468-0.26-0.468-0.709
				c0-0.377,0.112-1.053,0.318-2.042c0.254-1.271,0.4-2.316,0.4-3.146c0-0.812,0.094-1.336,0.27-1.598
				c0.189-0.258,0.58-0.381,1.187-0.381h28.56c0.978,0,1.567,0.103,1.772,0.307c0.202,0.225,0.301,0.838,0.301,1.881
				c0,1.045,0.046,1.801,0.131,2.277c0.094,0.598,0.15,1.028,0.167,1.295c0.012,0.526-0.175,0.805-0.555,0.843
				c-0.327,0.016-0.535-0.261-0.643-0.826c-0.23-1.251-0.6-2.073-1.117-2.448C168.333,4.293,167.333,4.113,165.85,4.113z"/>
		</g>
		<g>
			<path d="M181.997,5.49v10.702c0,0.823,0.086,1.313,0.233,1.48c0.146,0.171,0.605,0.257,1.351,0.257h4.096
				c1.855,0,3.328-0.109,4.402-0.318c0.958-0.193,1.578-0.445,1.855-0.768c0.289-0.322,0.542-1.066,0.772-2.232
				c0.096-0.446,0.318-0.656,0.675-0.635c0.345,0.018,0.523,0.259,0.523,0.716c0,0.119-0.014,0.312-0.031,0.574
				c-0.161,1.72-0.238,3.275-0.238,4.69c0,1.075,0.058,2.141,0.153,3.207c0.04,0.346,0.054,0.602,0.054,0.761
				c0,0.435-0.172,0.658-0.513,0.658c-0.374,0-0.601-0.194-0.677-0.581l-0.154-0.74c-0.214-1.188-0.635-1.988-1.274-2.415
				c-0.632-0.427-1.715-0.637-3.231-0.637h-5.854c-0.855,0-1.436,0.087-1.721,0.259c-0.297,0.185-0.442,0.545-0.442,1.068
				l0.021,0.879v9.773c0,1.51,0.279,2.443,0.808,2.82c0.544,0.368,1.912,0.589,4.097,0.551c8.513-0.116,11.396-1.557,13.373-4.689
				c0.204-0.295,0.403-0.455,0.609-0.473c0.319-0.027,0.477,0.207,0.477,0.684c0,1.142-0.642,2.518-1.938,4.098
				c-1.557,1.909-3.511,2.855-5.893,2.855c-0.5,0-18.122,0-18.374,0c-0.562,0-0.853-0.275-0.853-0.658
				c0-0.283,0.245-0.496,0.695-0.618l1.008-0.293c1.271-0.351,1.908-1.587,1.908-3.718l0.027-1.723V8.576
				c0-2.533-0.277-4.243-0.833-5.111c-0.557-0.881-1.634-1.309-3.248-1.309c-0.515,0-0.768-0.176-0.768-0.505
				c0-0.471,0.391-0.726,1.19-0.726c0.441,0,1.036,0.051,1.778,0.136c2.536,0.282,5.569,0.42,9.123,0.42
				c2.15,0,4.073-0.032,5.736-0.108l3.76-0.178c1.045-0.034,1.688-0.069,1.912-0.104c0.481-0.075,0.827-0.11,1.065-0.11
				c0.58,0,0.873,0.255,0.873,0.768c0,0.15-0.04,0.358-0.081,0.604c-0.057,0.249-0.129,0.956-0.212,2.117l-0.107,1.559
				c-0.09,1.02-0.184,1.661-0.27,1.92c-0.095,0.254-0.286,0.383-0.6,0.402c-0.346,0.017-0.517-0.242-0.517-0.791V6.869
				c0-0.568-0.104-1.104-0.312-1.617c-0.337-0.787-1.016-1.324-2.038-1.596c-1.018-0.26-2.908-0.392-5.635-0.392h-4.162
				c-1.092,0-1.797,0.132-2.119,0.409C182.161,3.947,181.997,4.557,181.997,5.49z"/>
		</g>
		<g>
			<path d="M223.433,19.377l11.456,17.018l0.851,1.268c2.256,3.318,4.347,5.039,6.254,5.156l0.85,0.053
				c0.323,0.027,0.478,0.148,0.449,0.381c-0.019,0.268-0.407,0.516-1.175,0.732c-0.774,0.215-1.642,0.324-2.622,0.324
				c-1.584,0-3.011-0.438-4.271-1.318c-1.275-0.871-2.56-2.305-3.869-4.275l-11.128-16.307l-0.369-0.576
				c-0.423-0.73-1.114-1.088-2.075-1.088h-3.13l-0.587,0.103c-0.207,0.121-0.319,0.409-0.319,0.853v8.307l0.039,1.057
				c0,1.525,0.064,2.574,0.212,3.125c0.151,0.562,0.513,1.07,1.081,1.51c0.758,0.604,1.927,0.98,3.521,1.145
				c0.641,0.067,0.972,0.27,0.987,0.598c0.043,0.34-0.258,0.52-0.876,0.52c-0.242,0-0.765-0.043-1.564-0.116
				c-0.727-0.089-1.843-0.121-3.36-0.121l-2.553-0.036l-1.378,0.025c-0.604,0-1.332,0.043-2.179,0.135
				c-0.692,0.078-1.168,0.113-1.433,0.113c-0.438,0-0.666-0.186-0.666-0.547c0-0.256,0.228-0.433,0.666-0.519
				c1.413-0.269,2.345-0.912,2.784-1.927c0.448-1.018,0.662-3.024,0.662-6.012V9.875l-0.051-2.761c0-2.764-0.963-4.3-2.888-4.628
				l-1.25-0.175c-0.569-0.11-0.843-0.313-0.843-0.626c0-0.365,0.299-0.543,0.897-0.543c0.147,0,0.762,0.038,1.863,0.1
				c0.628,0.056,1.423,0.079,2.354,0.079c0.814,0,2.2-0.06,4.167-0.179c1.409-0.088,2.653-0.131,3.74-0.131
				c4.056,0,7.134,0.756,9.192,2.286c2.076,1.538,3.115,3.816,3.115,6.834C229.986,14.123,227.801,17.201,223.433,19.377z
				 M215.638,18.804h3.006c2.318,0,4.151-0.643,5.472-1.913c1.332-1.286,1.994-3.026,1.994-5.246c0-2.565-0.903-4.682-2.704-6.345
				c-1.813-1.663-4.121-2.485-6.912-2.485c-1.052,0-1.77,0.164-2.173,0.515c-0.403,0.345-0.599,0.964-0.599,1.878l0.024,0.879
				v10.805c0,0.834,0.113,1.355,0.34,1.582C214.299,18.693,214.825,18.804,215.638,18.804z"/>
		</g>
		<g>
			<path d="M259.049,19.377l11.464,17.018l0.839,1.268c2.268,3.318,4.36,5.039,6.264,5.156l0.852,0.053
				c0.313,0.027,0.464,0.148,0.453,0.381c-0.022,0.268-0.408,0.516-1.183,0.732c-0.771,0.215-1.638,0.324-2.613,0.324
				c-1.59,0-3.029-0.438-4.291-1.318c-1.256-0.871-2.536-2.305-3.849-4.275l-11.139-16.307l-0.368-0.576
				c-0.429-0.73-1.112-1.088-2.074-1.088h-3.131l-0.574,0.103c-0.227,0.121-0.324,0.409-0.324,0.853v8.307l0.019,1.057
				c0,1.525,0.078,2.574,0.235,3.125c0.15,0.562,0.505,1.07,1.062,1.51c0.768,0.604,1.943,0.98,3.537,1.145
				c0.635,0.067,0.96,0.27,0.975,0.598c0.04,0.34-0.256,0.52-0.869,0.52c-0.251,0-0.778-0.043-1.57-0.116
				c-0.726-0.089-1.851-0.121-3.37-0.121l-2.548-0.036l-1.375,0.025c-0.604,0-1.334,0.043-2.18,0.135
				c-0.693,0.078-1.158,0.113-1.432,0.113c-0.437,0-0.658-0.186-0.658-0.547c0-0.256,0.222-0.433,0.658-0.519
				c1.414-0.269,2.345-0.912,2.792-1.927c0.449-1.018,0.662-3.024,0.662-6.012V9.875l-0.052-2.761c0-2.764-0.964-4.3-2.893-4.628
				l-1.241-0.175c-0.569-0.11-0.854-0.313-0.854-0.626c0-0.365,0.302-0.543,0.898-0.543c0.14,0,0.764,0.038,1.862,0.1
				c0.635,0.056,1.422,0.079,2.358,0.079c0.82,0,2.2-0.06,4.163-0.179c1.417-0.088,2.667-0.131,3.742-0.131
				c4.074,0,7.13,0.756,9.203,2.286c2.071,1.538,3.097,3.816,3.097,6.834C265.595,14.123,263.416,17.201,259.049,19.377z
				 M251.259,18.804h3c2.323,0,4.148-0.643,5.475-1.913c1.325-1.286,1.999-3.026,1.999-5.246c0-2.565-0.895-4.682-2.717-6.345
				c-1.804-1.663-4.105-2.485-6.91-2.485c-1.039,0-1.769,0.164-2.163,0.515c-0.401,0.345-0.601,0.964-0.601,1.878l0.034,0.879
				v10.805c0,0.834,0.108,1.355,0.332,1.582C249.926,18.693,250.447,18.804,251.259,18.804z"/>
		</g>
		<g>
			<path d="M295.838,23.719h-9.597c-1.304,0-2.128,0.096-2.44,0.309c-0.325,0.213-0.744,0.921-1.269,2.129l-1.749,3.902
				c-0.777,1.798-1.172,3.118-1.172,3.988c0,0.832,0.201,1.436,0.623,1.809c0.408,0.374,1.229,0.693,2.455,0.964
				c0.525,0.106,0.792,0.313,0.818,0.614c0.019,0.302-0.232,0.439-0.737,0.439c-0.204,0-0.496-0.01-0.896-0.027l-2.55-0.146
				c-0.838-0.047-1.827-0.066-2.933-0.066c-0.504,0-0.908,0.016-1.19,0.041c-0.906,0.1-1.394,0.148-1.482,0.148
				c-0.476,0-0.717-0.17-0.717-0.492c0-0.289,0.154-0.477,0.447-0.571l0.986-0.293c0.349-0.106,0.832-0.532,1.429-1.286
				c0.603-0.755,1.093-1.532,1.495-2.344l0.759-1.754l13.645-30.287C291.985,0.265,292.234,0,292.514,0
				c0.29,0,0.534,0.256,0.731,0.771l11.398,29.214l0.585,1.442c0.83,2.128,1.523,3.469,2.078,3.993
				c0.541,0.522,1.649,0.931,3.333,1.229c0.549,0.108,0.822,0.326,0.805,0.652c-0.02,0.293-0.278,0.44-0.753,0.44
				c-0.156,0-0.491-0.02-1.002-0.058c-0.92-0.09-2.555-0.126-4.909-0.126c-2.454,0-4,0.046-4.621,0.151
				c-0.357,0.075-0.642,0.111-0.823,0.111c-0.451,0-0.68-0.184-0.68-0.545c0-0.277,0.217-0.451,0.662-0.543l0.815-0.186
				c0.877-0.179,1.334-0.789,1.334-1.812c0-0.939-0.538-2.807-1.625-5.601l-1.323-3.515c-0.369-0.97-0.668-1.538-0.869-1.681
				C297.426,23.787,296.829,23.719,295.838,23.719z M296.155,19.447l-4.164-10.508l-0.209-0.561
				c-0.213-0.568-0.451-0.854-0.696-0.876c-0.116-0.017-0.259,0.153-0.42,0.511l-5.175,11.48c-0.23,0.492-0.338,0.82-0.338,0.975
				c0,0.464,0.405,0.697,1.228,0.697l0.712,0.023h8.004c0.883,0,1.326-0.222,1.326-0.664c0-0.125-0.042-0.326-0.142-0.607
				L296.155,19.447z"/>
		</g>
		<g>
			<path d="M342.998,4.428l0.85,6.365l0.086,0.662l-0.086,0.27c-0.085,0.154-0.215,0.244-0.396,0.265
				c-0.21,0.016-0.533-0.356-0.958-1.111c-3.301-5.783-7.794-8.677-13.461-8.677c-4.512,0-8.067,1.385-10.664,4.154
				c-2.606,2.773-3.901,6.562-3.901,11.361c0,5.529,1.441,10.043,4.337,13.543c2.89,3.51,6.607,5.257,11.147,5.257
				c2.664,0,5.278-0.7,7.843-2.124c2.569-1.422,4.339-3.139,5.334-5.158c0.459-0.941,0.816-1.424,1.063-1.443
				c0.278-0.014,0.425,0.157,0.425,0.51l-0.026,0.291l-0.11,0.587l-0.603,3.257l-0.107,0.476c-0.07,0.464-0.493,0.944-1.247,1.435
				c-4.087,2.602-8.586,3.896-13.509,3.896c-5.689,0-10.285-1.68-13.764-5.065c-3.479-3.365-5.219-7.813-5.219-13.326
				c0-5.512,1.802-10.093,5.416-13.745c3.602-3.649,8.128-5.475,13.568-5.475c3.737,0,7.166,0.842,10.294,2.524l1.068,0.556
				l0.416,0.191l0.452,0.155c0.083,0,0.219-0.063,0.406-0.216c0.381-0.278,0.647-0.421,0.792-0.421
				C342.725,3.421,342.917,3.758,342.998,4.428z"/>
		</g>
		<g>
			<path d="M367.853,0.631c5.533,0,10.07,1.717,13.622,5.135c3.543,3.412,5.311,7.793,5.311,13.13c0,5.649-1.788,10.29-5.356,13.916
				c-3.571,3.625-8.136,5.431-13.712,5.431c-5.712,0-10.336-1.728-13.859-5.189c-3.521-3.46-5.292-8.006-5.292-13.621
				c0-2.439,0.461-4.863,1.392-7.257c0.936-2.394,2.186-4.395,3.748-5.995c1.67-1.699,3.768-3.048,6.317-4.04
				C362.576,1.141,365.182,0.631,367.853,0.631z M366.14,2.356c-4.104,0-7.368,1.391-9.793,4.142
				c-2.409,2.766-3.604,6.49-3.604,11.168c0,5.352,1.529,9.861,4.622,13.532c3.086,3.676,6.877,5.509,11.366,5.509
				c4.114,0,7.5-1.497,10.184-4.494c2.671-2.984,4.005-6.781,4.005-11.369c0-5.281-1.6-9.678-4.808-13.204
				C374.899,4.121,370.914,2.356,366.14,2.356z"/>
		</g>
		<g>
			<path d="M416.542,4.113h-7.441c-0.78,0-1.272,0.104-1.471,0.314c-0.208,0.215-0.312,0.738-0.312,1.566v26.035l0.025,1.042
				c0.087,2.065,1.25,3.299,3.475,3.688c0.621,0.11,0.933,0.31,0.933,0.599c0,0.386-0.25,0.566-0.75,0.566
				c-0.22,0-0.645-0.051-1.308-0.158c-0.333-0.055-1.129-0.08-2.383-0.08l-1.942-0.023l-2.066,0.023c-0.76,0-1.377,0.025-1.883,0.08
				c-1.019,0.107-1.615,0.158-1.786,0.158c-0.537,0-0.801-0.181-0.801-0.566c0-0.269,0.295-0.448,0.879-0.516
				c1.362-0.176,2.281-0.553,2.754-1.13c0.476-0.583,0.715-1.606,0.715-3.092V6.291l-0.026-0.69c0-0.642-0.091-1.047-0.273-1.228
				c-0.197-0.176-0.622-0.26-1.287-0.26h-7.032c-1.436,0-2.479,0.279-3.118,0.857c-0.646,0.576-1.146,1.66-1.498,3.252
				c-0.165,0.683-0.4,1.021-0.722,1.006c-0.311-0.013-0.465-0.26-0.465-0.709c0-0.377,0.105-1.053,0.307-2.042
				c0.277-1.271,0.399-2.316,0.399-3.146c0-0.812,0.098-1.336,0.282-1.598c0.187-0.258,0.577-0.381,1.185-0.381h28.556h0.067h28.562
				c0.609,0,0.999,0.123,1.189,0.381c0.172,0.262,0.274,0.786,0.274,1.598c0,0.829,0.127,1.875,0.395,3.146
				c0.221,0.989,0.323,1.665,0.323,2.042c0,0.449-0.165,0.696-0.488,0.709c-0.312,0.016-0.547-0.323-0.701-1.006
				c-0.363-1.592-0.857-2.676-1.508-3.252c-0.642-0.578-1.681-0.857-3.106-0.857h-7.038c-0.674,0-1.094,0.084-1.279,0.26
				c-0.195,0.181-0.28,0.586-0.28,1.228l-0.03,0.69V32.62c0,1.485,0.239,2.509,0.715,3.092c0.481,0.577,1.394,0.954,2.767,1.13
				c0.575,0.067,0.862,0.247,0.862,0.516c0,0.386-0.255,0.566-0.796,0.566c-0.175,0-0.765-0.051-1.775-0.158
				c-0.521-0.055-1.144-0.08-1.89-0.08l-2.069-0.023l-1.94,0.023c-1.255,0-2.062,0.025-2.399,0.08
				c-0.65,0.107-1.084,0.158-1.293,0.158c-0.503,0-0.748-0.181-0.748-0.566c0-0.289,0.313-0.488,0.92-0.599
				c2.234-0.389,3.39-1.622,3.485-3.688l0.022-1.042V5.994c0-0.828-0.111-1.352-0.306-1.566c-0.204-0.211-0.694-0.314-1.475-0.314
				h-7.447H416.542z"/>
		</g>
		<g>
			<path d="M469.655,23.719h-9.591c-1.311,0-2.123,0.096-2.449,0.309c-0.316,0.213-0.736,0.921-1.275,2.129l-1.733,3.902
				c-0.789,1.798-1.178,3.118-1.178,3.988c0,0.832,0.199,1.436,0.623,1.809c0.412,0.374,1.233,0.693,2.447,0.964
				c0.541,0.106,0.81,0.313,0.834,0.614c0.008,0.302-0.236,0.439-0.745,0.439c-0.199,0-0.492-0.01-0.901-0.027l-2.542-0.146
				c-0.843-0.047-1.817-0.066-2.933-0.066c-0.508,0-0.91,0.016-1.179,0.041c-0.912,0.1-1.403,0.148-1.495,0.148
				c-0.474,0-0.716-0.17-0.716-0.492c0-0.289,0.156-0.477,0.449-0.571l0.987-0.293c0.356-0.106,0.834-0.532,1.435-1.286
				c0.597-0.755,1.094-1.532,1.479-2.344l0.774-1.754l13.638-30.287C465.805,0.265,466.058,0,466.344,0
				c0.288,0,0.519,0.256,0.717,0.771l11.407,29.214l0.583,1.442c0.827,2.128,1.514,3.469,2.07,3.993
				c0.544,0.522,1.658,0.931,3.333,1.229c0.555,0.108,0.82,0.326,0.793,0.652c-0.009,0.293-0.26,0.44-0.728,0.44
				c-0.162,0-0.502-0.02-1.017-0.058c-0.916-0.09-2.549-0.126-4.903-0.126c-2.457,0-3.996,0.046-4.613,0.151
				c-0.373,0.075-0.651,0.111-0.824,0.111c-0.462,0-0.695-0.184-0.695-0.545c0-0.277,0.227-0.451,0.669-0.543l0.825-0.186
				c0.876-0.179,1.321-0.789,1.321-1.812c0-0.939-0.542-2.807-1.626-5.601l-1.323-3.515c-0.365-0.97-0.659-1.538-0.87-1.681
				C471.25,23.787,470.65,23.719,469.655,23.719z M469.982,19.447l-4.172-10.508l-0.21-0.561c-0.215-0.568-0.439-0.854-0.689-0.876
				c-0.117-0.017-0.267,0.153-0.419,0.511l-5.187,11.48c-0.218,0.492-0.332,0.82-0.332,0.975c0,0.464,0.408,0.697,1.222,0.697
				l0.712,0.023h8.007c0.882,0,1.331-0.222,1.331-0.664c0-0.125-0.048-0.326-0.134-0.607L469.982,19.447z"/>
		</g>
		<g>
			<path d="M51.138,5.49v10.702c0,0.823,0.07,1.313,0.216,1.48c0.154,0.171,0.61,0.257,1.379,0.257h4.081
				c1.858,0,3.317-0.109,4.398-0.318c0.958-0.193,1.576-0.445,1.859-0.768c0.281-0.322,0.533-1.066,0.769-2.232
				c0.086-0.446,0.317-0.656,0.678-0.635c0.345,0.018,0.522,0.259,0.522,0.716c0,0.119-0.02,0.312-0.034,0.574
				c-0.159,1.72-0.243,3.275-0.243,4.69c0,1.075,0.06,2.141,0.165,3.207c0.041,0.346,0.052,0.602,0.052,0.761
				c0,0.435-0.178,0.658-0.523,0.658c-0.37,0-0.598-0.194-0.665-0.581l-0.169-0.74c-0.21-1.188-0.632-1.988-1.266-2.415
				c-0.631-0.427-1.708-0.637-3.229-0.637h-5.842c-0.866,0-1.452,0.087-1.738,0.259c-0.293,0.185-0.439,0.545-0.439,1.068
				l0.03,0.879v9.773c0,1.51,0.264,2.443,0.8,2.82c0.54,0.368,1.906,0.589,4.099,0.551c8.509-0.116,11.399-1.557,13.371-4.689
				c0.202-0.295,0.403-0.455,0.604-0.473c0.323-0.027,0.476,0.207,0.476,0.684c0,1.142-0.639,2.518-1.931,4.098
				c-1.557,1.909-3.518,2.855-5.881,2.855c-0.515,0-18.139,0-18.383,0c-0.564,0-0.853-0.275-0.853-0.658
				c0-0.283,0.234-0.496,0.694-0.618l1.002-0.293c1.277-0.351,1.911-1.587,1.911-3.718l0.03-1.723V8.576
				c0-2.533-0.28-4.243-0.836-5.111c-0.562-0.881-1.636-1.309-3.249-1.309c-0.512,0-0.77-0.176-0.77-0.505
				c0-0.471,0.395-0.726,1.192-0.726c0.445,0,1.038,0.051,1.78,0.136c2.531,0.282,5.563,0.42,9.119,0.42
				c2.165,0,4.067-0.032,5.731-0.108l3.768-0.178c1.05-0.034,1.673-0.069,1.91-0.104c0.482-0.075,0.833-0.11,1.063-0.11
				c0.578,0,0.866,0.255,0.866,0.768c0,0.15-0.019,0.358-0.073,0.604c-0.052,0.249-0.123,0.956-0.215,2.117l-0.107,1.559
				c-0.089,1.02-0.182,1.661-0.266,1.92c-0.085,0.254-0.294,0.383-0.599,0.402c-0.339,0.017-0.514-0.242-0.514-0.791V6.869
				c0-0.568-0.102-1.104-0.317-1.617c-0.336-0.787-1.015-1.324-2.038-1.596c-1.022-0.26-2.907-0.392-5.633-0.392h-4.164
				c-1.094,0-1.798,0.132-2.111,0.409C51.293,3.947,51.138,4.557,51.138,5.49z"/>
		</g>
	</g>
	<g>
		<g>
			<path stroke="#000000" stroke-width="0.25" stroke-miterlimit="10" d="M93.398,63.507v4.224h-0.941V57.729h3.467
				c1.019,0,1.806,0.248,2.378,0.754c0.566,0.499,0.852,1.197,0.852,2.116c0,0.402-0.072,0.786-0.211,1.14
				c-0.149,0.355-0.354,0.674-0.613,0.941c-0.261,0.27-0.6,0.473-1.021,0.616c-0.419,0.134-0.875,0.211-1.385,0.211H93.398z
				 M93.398,58.587v4.09h2.258c1.665,0,2.506-0.683,2.506-2.053c0-1.35-0.841-2.037-2.506-2.037H93.398z"/>
		</g>
		<g>
			<path stroke="#000000" stroke-width="0.25" stroke-miterlimit="10" d="M116.881,62.734c0,1.559-0.414,2.813-1.249,3.76
				c-0.817,0.934-1.952,1.414-3.409,1.414c-0.958,0-1.782-0.213-2.46-0.633c-0.675-0.408-1.217-1.008-1.608-1.781
				c-0.389-0.775-0.578-1.695-0.578-2.76c0-1.561,0.408-2.818,1.239-3.753c0.828-0.948,1.958-1.421,3.407-1.421
				c0.974,0,1.797,0.205,2.485,0.629c0.688,0.429,1.222,1.031,1.598,1.798C116.697,60.762,116.881,61.678,116.881,62.734z
				 M115.89,62.734c0-1.31-0.324-2.373-0.978-3.182c-0.648-0.812-1.553-1.211-2.688-1.211c-1.149,0-2.041,0.408-2.691,1.217
				c-0.651,0.811-0.964,1.866-0.964,3.176c0,1.291,0.324,2.347,0.976,3.164c0.658,0.821,1.545,1.225,2.679,1.225
				c0.735,0,1.384-0.181,1.918-0.534c0.537-0.357,0.958-0.871,1.279-1.527C115.735,64.395,115.89,63.615,115.89,62.734z"/>
		</g>
		<g>
			<path stroke="#000000" stroke-width="0.25" stroke-miterlimit="10" d="M133.966,67.73h-1.207l-1.349-2.113
				c-0.558-0.874-0.958-1.448-1.201-1.693c-0.236-0.249-0.524-0.448-0.846-0.582c-0.327-0.139-0.686-0.201-1.071-0.201h-1.44v4.59
				h-0.961V57.729h4.207c0.641,0,1.188,0.112,1.639,0.327c0.436,0.213,0.793,0.508,1.025,0.909c0.246,0.386,0.37,0.865,0.37,1.434
				c0,1.596-0.971,2.479-2.9,2.668c0.703,0.363,1.317,0.943,1.828,1.717L133.966,67.73z M126.852,58.563v3.755h2.632
				c1.759,0,2.65-0.641,2.65-1.913c0-0.271-0.046-0.526-0.14-0.742c-0.097-0.228-0.247-0.423-0.449-0.606
				c-0.211-0.181-0.475-0.305-0.802-0.381c-0.321-0.075-0.736-0.112-1.218-0.112H126.852z"/>
		</g>
		<g>
			<path stroke="#000000" stroke-width="0.25" stroke-miterlimit="10" d="M148.421,58.601h-3.07v9.13h-0.962v-9.13h-3.055v-0.872
				h7.087V58.601z"/>
		</g>
		<g>
			<path stroke="#000000" stroke-width="0.25" stroke-miterlimit="10" d="M157.025,57.729h0.966v6.401
				c0,1.998,0.961,2.993,2.876,2.993c1.907,0,2.856-0.991,2.856-2.969v-6.426h0.966v6.324c0,2.566-1.264,3.855-3.806,3.855
				c-2.569,0-3.858-1.279-3.858-3.851V57.729z"/>
		</g>
		<g>
			<path stroke="#000000" stroke-width="0.25" stroke-miterlimit="10" d="M182.943,66.461c-1.326,0.951-2.698,1.434-4.158,1.434
				c-0.529,0-1.021-0.06-1.48-0.167c-0.451-0.113-0.875-0.283-1.264-0.509c-0.377-0.223-0.734-0.506-1.046-0.859
				c-0.315-0.334-0.558-0.672-0.733-1.006c-0.155-0.34-0.288-0.715-0.367-1.131c-0.083-0.418-0.125-0.879-0.125-1.367
				c0-1.107,0.203-2.057,0.606-2.844c0.397-0.785,0.965-1.394,1.705-1.822c0.732-0.424,1.622-0.629,2.662-0.629
				c1.059,0,1.931,0.229,2.619,0.698c0.69,0.464,1.176,1.183,1.438,2.156l-0.917,0.276c-0.521-1.567-1.581-2.35-3.203-2.35
				c-1.21,0-2.174,0.399-2.876,1.2c-0.707,0.804-1.061,1.87-1.061,3.213c0,0.817,0.143,1.554,0.439,2.198
				c0.3,0.645,0.745,1.166,1.336,1.566c0.6,0.395,1.322,0.593,2.183,0.593c1.214,0,2.324-0.367,3.309-1.099v-2.445h-3.177v-0.814
				h4.111V66.461z"/>
		</g>
		<g>
			<path stroke="#000000" stroke-width="0.25" stroke-miterlimit="10" d="M192.053,57.729h0.964v6.401
				c0,1.998,0.963,2.993,2.882,2.993c1.9,0,2.858-0.991,2.858-2.969v-6.426h0.959v6.324c0,2.566-1.268,3.855-3.794,3.855
				c-2.57,0-3.869-1.279-3.869-3.851V57.729z"/>
		</g>
		<g>
			<path stroke="#000000" stroke-width="0.25" stroke-miterlimit="10" d="M215.851,67.73h-6.597V57.729h6.395v0.842h-5.446v3.592
				h5.04v0.832h-5.04v3.908h5.648V67.73z"/>
		</g>
		<g>
			<path stroke="#000000" stroke-width="0.25" stroke-miterlimit="10" d="M224.201,64.719l0.942-0.08
				c0.069,0.816,0.351,1.435,0.829,1.859c0.469,0.416,1.096,0.625,1.875,0.625c0.567,0,1.052-0.09,1.447-0.256
				c0.401-0.165,0.696-0.432,0.918-0.768c0.217-0.342,0.319-0.693,0.319-1.076c0-1.003-0.869-1.671-2.616-1.986
				c-1.186-0.217-2.032-0.544-2.542-0.986c-0.513-0.438-0.768-1.047-0.768-1.82c0-0.826,0.298-1.475,0.9-1.959
				c0.6-0.48,1.357-0.711,2.28-0.711c1.035,0,1.838,0.227,2.413,0.694c0.575,0.461,0.893,1.165,0.941,2.114l-0.929,0.046
				c-0.105-1.384-0.884-2.073-2.342-2.073c-0.682,0-1.24,0.158-1.674,0.479c-0.448,0.331-0.667,0.772-0.667,1.322
				c0,0.954,0.799,1.589,2.398,1.907c1.174,0.246,2.059,0.58,2.639,1.016c0.582,0.434,0.876,1.063,0.876,1.896
				c0,0.443-0.073,0.836-0.233,1.189c-0.157,0.355-0.397,0.663-0.713,0.936c-0.323,0.26-0.698,0.459-1.135,0.607
				c-0.432,0.139-0.918,0.213-1.445,0.213C225.636,67.908,224.401,66.843,224.201,64.719z"/>
		</g>
		<g>
			<path stroke="#000000" stroke-width="0.25" stroke-miterlimit="10" d="M246.994,67.73H240.4V57.729h6.391v0.842h-5.447v3.592
				h5.039v0.832h-5.039v3.908h5.65V67.73z"/>
		</g>
		<g>
			<path stroke="#000000" stroke-width="0.25" stroke-miterlimit="10" d="M274.472,67.73h-0.912v-4.854h-5.812v4.854h-0.925V57.729
				h0.925v4.322h5.812v-4.322h0.912V67.73z"/>
		</g>
		<g>
			<path stroke="#000000" stroke-width="0.25" stroke-miterlimit="10" d="M292.071,67.73h-1.074l-1.302-3.186h-4.659l-1.256,3.186
				h-1.024l4.061-10.002h0.992L292.071,67.73z M289.384,63.756l-2.079-5.033l-1.985,5.033H289.384z"/>
		</g>
		<g>
			<path stroke="#000000" stroke-width="0.25" stroke-miterlimit="10" d="M307.949,67.73h-1.005l-5.764-8.525l0.085,8.525h-0.953
				V57.729h0.953l5.834,8.619l-0.083-8.619h0.933V67.73z"/>
		</g>
		<g>
			<path stroke="#000000" stroke-width="0.25" stroke-miterlimit="10" d="M317.454,67.73V57.729h3.84
				c0.958,0,1.76,0.226,2.406,0.684c0.646,0.444,1.103,1.055,1.386,1.81c0.291,0.759,0.44,1.578,0.44,2.45
				c0,1.598-0.374,2.847-1.114,3.726c-0.74,0.894-1.776,1.333-3.119,1.333H317.454z M318.398,58.563v8.33h2.349
				c0.581,0,1.073-0.051,1.482-0.14c0.42-0.087,0.796-0.311,1.167-0.661c0.375-0.343,0.658-0.796,0.847-1.382
				c0.198-0.569,0.287-1.281,0.287-2.109c0-2.689-1.263-4.038-3.783-4.038H318.398z"/>
		</g>
		<g>
			<path stroke="#000000" stroke-width="0.25" stroke-miterlimit="10" d="M343.763,67.73h-0.945l0.155-8.975l-3.417,8.975h-0.795
				l-3.368-8.975l0.146,8.975h-0.936V57.729h1.324l3.223,8.658l3.266-8.658h1.347V67.73z"/>
		</g>
		<g>
			<path stroke="#000000" stroke-width="0.25" stroke-miterlimit="10" d="M361.359,67.73h-1.069l-1.305-3.186h-4.665l-1.248,3.186
				h-1.032l4.066-10.002h0.991L361.359,67.73z M358.667,63.756l-2.076-5.033l-1.978,5.033H358.667z"/>
		</g>
		<g>
			<path stroke="#000000" stroke-width="0.25" stroke-miterlimit="10" d="M369.604,67.73V57.729h3.845
				c0.956,0,1.764,0.226,2.406,0.684c0.649,0.444,1.107,1.055,1.395,1.81c0.281,0.759,0.429,1.578,0.429,2.45
				c0,1.598-0.369,2.847-1.11,3.726c-0.733,0.894-1.782,1.333-3.12,1.333H369.604z M370.551,58.563v8.33h2.36
				c0.577,0,1.065-0.051,1.474-0.14c0.414-0.087,0.798-0.311,1.168-0.661c0.373-0.343,0.658-0.796,0.847-1.382
				c0.189-0.569,0.286-1.281,0.286-2.109c0-2.689-1.26-4.038-3.775-4.038H370.551z"/>
		</g>
		<g>
			<path stroke="#000000" stroke-width="0.25" stroke-miterlimit="10" d="M393.382,67.73h-6.599V57.729h6.392v0.842h-5.441v3.592
				h5.036v0.832h-5.036v3.908h5.648V67.73z"/>
		</g>
	</g>
	<g>
		<rect y="61.854" width="78.475" height="1.349"/>
	</g>
	<g>
		<rect x="406.788" y="61.854" width="78.469" height="1.349"/>
	</g>
</g>
</svg>
