<?xml version="1.0" encoding="utf-8"?>
<!-- Generator: Adobe Illustrator 16.0.0, SVG Export Plug-In . SVG Version: 6.00 Build 0)  -->
<!DOCTYPE svg PUBLIC "-//W3C//DTD SVG 1.1//EN" "http://www.w3.org/Graphics/SVG/1.1/DTD/svg11.dtd">
<svg version="1.1" id="Layer_1" xmlns="http://www.w3.org/2000/svg" xmlns:xlink="http://www.w3.org/1999/xlink" x="0px" y="0px"
	 width="35.714px" height="54.875px" viewBox="220.286 392.875 35.714 54.875"
	 enable-background="new 220.286 392.875 35.714 54.875" xml:space="preserve">
<g id="icomoon-ignore">
</g>
<path d="M246.997,411.583c0-2.443-0.864-4.53-2.594-6.26s-3.816-2.594-6.26-2.594c-2.444,0-4.531,0.864-6.261,2.594
	s-2.594,3.816-2.594,6.26c0,2.444,0.864,4.531,2.594,6.261s3.816,2.594,6.261,2.594c2.443,0,4.53-0.864,6.26-2.594
	S246.997,414.027,246.997,411.583z M255.852,411.583c0,2.514-0.381,4.577-1.142,6.191l-12.589,26.77
	c-0.369,0.762-0.916,1.361-1.644,1.799c-0.726,0.438-1.504,0.657-2.334,0.657s-1.609-0.22-2.334-0.657
	c-0.728-0.438-1.264-1.037-1.609-1.799l-12.624-26.77c-0.761-1.614-1.142-3.678-1.142-6.191c0-4.889,1.729-9.062,5.188-12.521
	c3.459-3.458,7.632-5.188,12.521-5.188s9.062,1.729,12.521,5.188C254.122,402.521,255.852,406.694,255.852,411.583z"/>
</svg>
