<?xml version="1.0" encoding="utf-8"?>
<!-- Generator: Adobe Illustrator 16.0.0, SVG Export Plug-In . SVG Version: 6.00 Build 0)  -->
<!DOCTYPE svg PUBLIC "-//W3C//DTD SVG 1.1//EN" "http://www.w3.org/Graphics/SVG/1.1/DTD/svg11.dtd">
<svg version="1.1" id="Layer_1" xmlns="http://www.w3.org/2000/svg" xmlns:xlink="http://www.w3.org/1999/xlink" x="0px" y="0px"
	 width="26.603px" height="40.875px" viewBox="229.397 406.875 26.603 40.875"
	 enable-background="new 229.397 406.875 26.603 40.875" xml:space="preserve">
<g id="icomoon-ignore">
</g>
<path d="M249.084,421.458c0-1.762-0.623-3.268-1.87-4.515c-1.248-1.247-2.753-1.87-4.515-1.87c-1.763,0-3.268,0.623-4.516,1.87
	c-1.247,1.247-1.87,2.753-1.87,4.515c0,1.763,0.623,3.268,1.87,4.515c1.248,1.248,2.753,1.871,4.516,1.871
	c1.762,0,3.267-0.623,4.515-1.871C248.461,424.726,249.084,423.221,249.084,421.458z M255.47,421.458
	c0,1.812-0.274,3.301-0.823,4.465l-9.079,19.306c-0.266,0.55-0.66,0.982-1.186,1.298c-0.522,0.315-1.084,0.474-1.683,0.474
	s-1.161-0.158-1.684-0.474c-0.524-0.315-0.911-0.748-1.16-1.298l-9.104-19.306c-0.549-1.164-0.823-2.652-0.823-4.465
	c0-3.525,1.247-6.535,3.742-9.029c2.494-2.494,5.504-3.741,9.029-3.741s6.535,1.247,9.029,3.741S255.47,417.933,255.47,421.458z"/>
</svg>
